<svg width="115" height="40" viewBox="0 0 115 40" fill="none" xmlns="http://www.w3.org/2000/svg">
<path d="M6.61634 28.5121C7.10232 29.8018 7.77514 30.9046 8.63494 31.8203C9.49474 32.7362 10.5133 33.437 11.6908 33.923C12.8683 34.409 14.1486 34.6519 15.5317 34.6519C16.8775 34.6519 18.139 34.3996 19.3165 33.8949C20.4941 33.3901 21.522 32.68 22.4004 31.7642C23.2788 30.8483 23.961 29.7551 24.447 28.4841C24.933 27.2131 25.1759 25.7928 25.1759 24.2227V0H31.0634V39.2497H25.232V35.605C23.9237 36.988 22.3816 38.0534 20.6061 38.8012C18.8304 39.5487 16.9148 39.9225 14.8589 39.9225C12.7654 39.9225 10.8123 39.558 8.99933 38.8291C7.18644 38.1002 5.61635 37.063 4.28943 35.7172C2.96252 34.3714 1.91575 32.7549 1.1495 30.8671C0.383125 28.9794 0 26.8768 0 24.5591V0H5.88744V24.2227C5.88744 25.7928 6.13036 27.2224 6.61634 28.5121Z" fill="#010202"/>
<path d="M41.2117 0V14.2981C42.52 12.9898 44.0341 11.9525 45.7535 11.1862C47.473 10.4198 49.3421 10.0367 51.3606 10.0367C53.454 10.0367 55.4162 10.4291 57.248 11.2141C59.0796 11.9991 60.6682 13.0644 62.014 14.4102C63.3598 15.756 64.4251 17.3446 65.2101 19.1762C65.9951 21.008 66.3875 22.9517 66.3875 25.0077C66.3875 27.0635 65.9951 28.998 65.2101 30.8109C64.4251 32.6239 63.3598 34.2033 62.014 35.5488C60.6682 36.8946 59.0796 37.96 57.248 38.745C55.4162 39.5299 53.4539 39.9224 51.3606 39.9224C49.342 39.9224 47.4637 39.5392 45.7255 38.7729C43.9873 38.0066 42.464 36.9693 41.1557 35.661V39.2495H35.5486V0H41.2117ZM41.8565 28.8765C42.3611 30.0728 43.0621 31.1194 43.9592 32.0166C44.8564 32.9137 45.903 33.624 47.0992 34.1473C48.2954 34.6707 49.585 34.9323 50.9681 34.9323C52.3139 34.9323 53.5847 34.6707 54.7809 34.1473C55.977 33.624 57.0143 32.9138 57.8929 32.0166C58.7713 31.1196 59.4722 30.0728 59.9955 28.8765C60.5188 27.6804 60.7805 26.3908 60.7805 25.0077C60.7805 23.6246 60.5188 22.3256 59.9955 21.1107C59.4722 19.8958 58.7713 18.8399 57.8929 17.9427C57.0144 17.0457 55.9772 16.3447 54.7809 15.8401C53.5846 15.3355 52.3138 15.083 50.9681 15.083C49.6225 15.083 48.3515 15.3354 47.1554 15.8401C45.9592 16.3448 44.9126 17.0457 44.0153 17.9427C43.1183 18.8399 42.408 19.8958 41.8847 21.1107C41.3614 22.3256 41.0997 23.6246 41.0997 25.0077C41.0996 26.3908 41.3519 27.6804 41.8565 28.8765Z" fill="#010202"/>
<path d="M69.583 19.2324C70.3305 17.4381 71.3587 15.8589 72.6669 14.4945C73.975 13.1301 75.5265 12.0554 77.3208 11.2704C79.1151 10.4854 81.0589 10.093 83.1522 10.093C85.2081 10.093 87.1145 10.4668 88.8715 11.2143C90.6283 11.962 92.1422 12.9993 93.4131 14.3264C94.6841 15.6533 95.6748 17.2234 96.3848 19.0363C97.0951 20.8493 97.4502 22.8211 97.4502 24.9519V26.8022H74.1809C74.3678 27.961 74.7417 29.0357 75.3023 30.0261C75.8631 31.0167 76.5639 31.8765 77.4049 32.6054C78.246 33.3344 79.1992 33.9045 80.2646 34.3156C81.33 34.7267 82.4606 34.9324 83.6569 34.9324C87.0586 34.9324 89.8061 33.5306 91.8994 30.727L95.9925 33.7548C94.5721 35.6612 92.8153 37.1565 90.722 38.2405C88.6286 39.3245 86.2736 39.8665 83.657 39.8665C81.5262 39.8665 79.5358 39.4926 77.6854 38.7451C75.8351 37.9976 74.2278 36.9508 72.8634 35.605C71.499 34.2592 70.4243 32.68 69.6393 30.8671C68.8543 29.0542 68.4618 27.0822 68.4618 24.9516C68.4615 22.9331 68.8355 21.0267 69.583 19.2324ZM77.461 17.0175C75.8723 18.3446 74.8163 20.1108 74.293 22.3163H91.7311C91.2452 20.1108 90.2078 18.3446 88.6191 17.0175C87.0304 15.6906 85.1708 15.0271 83.0401 15.0271C80.9094 15.0271 79.0497 15.6906 77.461 17.0175Z" fill="#010202"/>
<path d="M108.047 17.6623C106.851 18.9706 106.253 20.7462 106.253 22.9891V39.2498H100.59V10.6535H106.197V14.186C106.907 13.0272 107.832 12.1114 108.972 11.4385C110.112 10.7656 111.468 10.4291 113.038 10.4291H115V15.6998H112.645C110.776 15.6999 109.243 16.354 108.047 17.6623Z" fill="#010202"/>
</svg>
